<svg width="775" height="144" viewBox="0 0 775 144" fill="none" xmlns="http://www.w3.org/2000/svg">
<path d="M540.121 118.042V18.0532H552.655V45.6065H564.405V56.4745H552.655V118.042H540.121ZM524.434 57.4932L479.889 57.6158V76.9518H527.855V87.5758H467.483V47.2465H512.029V31.0612H467.359V20.3238H524.434V57.4932Z" fill="#80786C"/>
<path d="M650.413 18.0539H663.074V118.043H650.413V18.0539ZM605.768 74.5512C608.422 74.5512 610.957 74.1766 613.488 73.1592C615.768 72.4046 617.918 71.0112 619.69 69.1232C621.464 67.3512 622.848 65.0726 623.994 62.1712C625 59.3846 625.51 56.0992 625.51 52.1752C625.51 48.3859 625 45.1005 623.994 42.1912C622.848 39.4112 621.464 37.1366 619.69 35.2446C617.918 33.4726 615.768 32.0792 613.488 31.0606C610.957 30.3072 608.422 29.8045 605.768 29.8045C602.982 29.8045 600.328 30.3072 598.053 31.0606C595.513 32.0792 593.49 33.4726 591.722 35.2446C589.95 37.1366 588.557 39.4112 587.542 42.1912C586.405 45.1005 585.902 48.3859 585.902 52.1752C585.902 56.0992 586.405 59.3846 587.542 62.1712C588.557 65.0726 589.95 67.3512 591.722 69.1232C593.49 71.0112 595.513 72.4046 598.053 73.1592C600.328 74.1766 602.982 74.5512 605.768 74.5512ZM605.645 18.0539C610.194 18.0539 614.498 18.8112 618.549 20.2046C622.473 21.7219 626.022 23.7366 629.054 26.5219C632.097 29.4246 634.496 32.9699 636.268 37.2645C637.912 41.5605 638.802 46.6152 638.802 52.3072C638.802 58.1192 637.912 63.0525 636.268 67.2192C634.496 71.5179 632.097 75.1899 629.054 77.9646C626.022 80.8779 622.473 83.0232 618.549 84.4126C614.498 85.9272 610.194 86.5659 605.645 86.5659C601.086 86.5659 596.784 85.9272 592.86 84.4126C588.812 83.0232 585.26 80.8779 582.226 77.9646C579.189 75.1899 576.794 71.5179 575.145 67.2192C573.369 63.0525 572.482 58.1192 572.482 52.3072C572.482 46.6152 573.369 41.5605 575.145 37.2645C576.794 32.9699 579.189 29.4246 582.226 26.5219C585.26 23.7366 588.812 21.7219 592.86 20.2046C596.784 18.8112 601.086 18.0539 605.645 18.0539Z" fill="#80786C"/>
<path d="M739.644 66.2113H708.263V32.9726H739.644V66.2113ZM764.959 66.2113H752.051V32.97H764.959V22.2206H683.08V32.97H695.857V66.2113H683.08V76.9526H764.959V66.2113Z" fill="#80786C"/>
<path d="M673.84 110.45H774.2V99.587H673.84V110.45Z" fill="#80786C"/>
<path d="M369.6 106.922H400.376C419.474 106.922 424.54 99.4702 424.54 89.9782C424.54 78.7302 416.762 72.5049 399.546 72.5049H369.6V106.922ZM369.6 61.3756H401.344C413.148 61.3756 421.849 56.9049 421.849 46.4756C421.849 37.3649 417.554 31.2956 399.546 31.2956H369.6V61.3756ZM354.012 20.1529H402.122C425.005 20.1529 436.97 27.7436 436.97 44.3689C436.97 56.1902 428.724 64.3382 417.744 66.5329V66.9476C433.488 68.8182 440.932 79.1449 440.932 90.7942C440.932 105.418 430.224 118.042 403.64 118.042H354.012V20.1529Z" fill="#80786C"/>
<path d="M248.143 20.1532H263.764V63.9586L316.379 20.1532H338.504L282.912 64.3626L343.12 118.039H321.012L263.764 65.5852V118.039H248.143V20.1532Z" fill="#80786C"/>
<path d="M198.811 73.8714L197.064 72.754C191.1 66.8087 182.807 64.2314 171.712 64.882C162.471 65.4434 155.139 69.1114 149.547 72.5114C149.547 72.4247 149.537 72.338 149.537 72.2607C149.537 69.3674 149.867 66.23 150.197 63.1807C150.511 60.0807 150.844 56.9327 150.844 53.954C150.844 50.91 150.503 48.0207 149.456 45.5567C149.192 44.9234 148.607 44.5474 147.864 44.5474C144.889 44.6127 139.061 46.6567 137.643 47.894C137.643 47.9034 136.876 49.5767 136.876 49.5767C136.827 52.8847 136.097 62.11 135.36 63.234C135.393 63.1927 134.972 64.3447 134.972 64.3447C133.711 77.5234 133.695 89.1127 134.844 99.062C134.98 100.058 136.901 101.547 138.376 102.091C140 102.691 145.069 101.331 148.004 100.233C147.964 100.241 149.092 100.058 149.092 100.058C150.024 99.9567 150.568 99.1794 150.527 98.1207C150.511 98.098 150.597 95.258 150.597 95.258C152.712 86.6727 161.256 76.422 171.373 74.886C177.095 73.9834 181.604 75.45 185.173 79.3327C185.655 80.0327 186.697 86.214 182.931 93.3127C180.12 98.57 174.515 103.002 167.128 105.769C160.147 108.422 152.46 109.494 142.964 109.169C142.572 108.917 134.073 103.163 134.073 103.163C126.548 97.8794 117.192 91.2954 108.717 88.082C107.225 87.51 104.555 85.2927 102.952 83.9647L102.073 83.246C97.1853 79.3287 87.8707 73.1167 80.4027 68.1447C80.4027 68.1447 77.032 65.8794 76.372 65.4434C76.388 65.166 76.388 64.6007 76.388 64.6007C76.6027 64.3594 81.3053 61.542 81.3053 61.542C87.8707 57.698 90.9133 55.8154 91.56 54.838C91.428 54.9967 92.4293 54.3207 92.4293 54.3207C92.496 54.294 108.735 45.0994 108.735 45.0994C124.38 36.502 142.103 26.7434 151.409 17.1101C151.429 17.0954 151.871 15.6301 151.871 15.6301L152.077 14.3194C152.695 12.2581 152.728 10.6794 152.204 8.84605C152.077 8.32071 151.591 7.71672 150.947 7.60072C143.673 6.87538 134.304 11.2367 125.764 19.2447C123.836 21.0474 122.22 21.9314 120.513 22.8594L119.207 23.5927C109.793 28.9421 88.5973 42.098 77.4933 49.1994C78.2267 37.2634 80.436 20.2914 83.156 6.13805L82.8507 4.45272C82.8187 4.39005 81.7053 2.30871 81.7053 2.30871L80.84 0.780719L80.592 0.712716C78.3747 -0.407284 76.5653 0.0460502 75.2347 0.37805L73.0173 1.19671L70.0627 2.27005C69.472 2.38338 69.064 2.74871 68.8373 3.31005C63.5373 16.1207 59.1187 37.194 58.068 54.0447C47.48 47.3087 37.6867 42.4647 32.8853 40.1247L32.7533 40.05L32.1893 39.9287C30.4587 39.7061 28.356 38.4381 26.328 37.2061C26.1093 37.0781 22.2973 34.598 22.2973 34.598L16.148 30.6554C16.1893 30.69 14.516 30.2847 14.516 30.2847C11.8773 30.7394 6.79999 34.1474 5.29199 36.4767C5.10266 36.782 5.02 37.1154 5.02 37.4634C5.02 37.9527 5.16799 38.4474 5.29199 38.9247L5.56799 40.178L5.856 40.9327C8.808 43.9514 16.2547 48.99 23.5507 52.9114L32.008 57.402L44.9613 64.474C44.9613 64.5287 47.1707 66.23 47.1707 66.23L48.692 67.1034C48.692 67.1034 48.8693 67.2114 48.972 67.2754C45.5173 69.5847 25.4133 83.0087 25.4133 83.0087L13.024 91.2194C11.8533 92.0154 6.96534 94.2074 5.88534 94.634C3.20667 95.734 1.17067 97.414 0.333333 99.2314L0 99.9447L0.333333 100.425L1.27734 101.143C1.23601 101.143 2.54667 101.963 2.54667 101.963L3.91066 102.907C3.944 102.917 5.20133 103.11 5.20133 103.11C7.37733 103.197 10.6 101.951 16.6307 99.3114C22.1733 96.862 37.2173 87.782 43.6467 83.9074L46.392 82.2634C47.5293 82.3554 48.7693 81.394 49.8867 80.554C51.1733 79.526 53.984 77.8034 55.6907 77.0474C55.748 77.0327 56.72 76.4887 57.64 75.978C57.636 76.262 57.6267 76.7114 57.6267 76.7114C57.916 96.3914 59.0413 110.69 61.196 121.717L61.2293 121.905L61.436 122.349C62.4907 123.903 63.6947 128.566 64.7653 132.678L67.2147 140.887C67.272 140.982 67.9107 141.659 67.9107 141.659C69.308 142.609 73.5693 144.243 76.4133 143.907L77.1227 143.818L77.576 142.821C77.8107 141.597 77.8973 140.385 77.8973 139.058C77.8973 137.559 77.7893 135.91 77.6587 133.881L77.46 130.919C76.5653 117.185 75.6587 97.3567 75.6587 84.1687V83.1207C78 84.5807 88.2053 91.0167 88.2053 91.0167C105.577 102.29 131.815 119.311 147.675 123.809C148.499 124.062 149.364 123.866 149.975 123.283C150 123.251 152.415 121.721 152.415 121.721L152.872 121.533C153.783 121.097 154.393 119.567 154.5 117.902C167.863 117.23 186.5 112.086 196.483 99.5407C200.34 94.6807 202.071 88.726 202.071 83.6354C202.071 79.4567 200.916 75.854 198.811 73.8714Z" fill="#F8B700"/>
</svg>
